<svg width="18" height="18" viewBox="0 0 18 18" fill="none" xmlns="http://www.w3.org/2000/svg">
<path fill-rule="evenodd" clip-rule="evenodd" d="M9 18C13.9706 18 18 13.9706 18 9C18 4.02944 13.9706 0 9 0C4.02944 0 0 4.02944 0 9C0 13.9706 4.02944 18 9 18Z" fill="#0D6EFD"/>
<path d="M11.4116 13H6.42142V11.9502L8.21341 10.1387C8.57474 9.76758 8.86445 9.45833 9.08255 9.21094C9.3039 8.96029 9.46341 8.73242 9.56106 8.52734C9.66198 8.32227 9.71243 8.10254 9.71243 7.86816C9.71243 7.58496 9.63268 7.37337 9.47317 7.2334C9.31692 7.09017 9.10696 7.01855 8.84329 7.01855C8.5666 7.01855 8.29804 7.08203 8.03763 7.20898C7.77721 7.33594 7.5054 7.5166 7.2222 7.75098L6.40188 6.7793C6.60696 6.60352 6.82343 6.4375 7.0513 6.28125C7.28242 6.125 7.54935 5.99967 7.85208 5.90527C8.15807 5.80762 8.52428 5.75879 8.95071 5.75879C9.41946 5.75879 9.82148 5.84342 10.1568 6.0127C10.4953 6.18197 10.7557 6.41309 10.938 6.70605C11.1203 6.99577 11.2115 7.32454 11.2115 7.69238C11.2115 8.08626 11.1333 8.44596 10.9771 8.77148C10.8208 9.09701 10.593 9.41927 10.2935 9.73828C9.99726 10.0573 9.63919 10.4105 9.21927 10.7979L8.3013 11.6621V11.7305H11.4116V13Z" fill="white"/>
</svg>
